# xmcd
#
# Track frame offsets: 
#        150
#        18791
#        40751
#        59059
#        83830
#        104092
#        124171
#        140653
#        169886
#        185848
#        206777
#        229362
#        254135
#        277325
#        295896
#        319329
#        335214
#
# Disc length: 4752 seconds
#
# Revision: 1
# Processed by: cddbd v1.5.2PL0 Copyright (c) Steve Scherf et al.
# Submitted via: ExactAudioCopy v0.95a5
#
DISCID=24128e11
DTITLE=Various Artist - Women and The Blues  CD-4
DYEAR=2004
DGENRE=Blues
TTITLE0=Memory Lane - DEBORAH COLEMAN
TTITLE1=Hard Road - DEBBIE DAVIES
TTITLE2=Last Child - CATHY RICHARDSON
TTITLE3=Think About You - MARIA MULDAUR
TTITLE4=One Way Street - LOU ANN BARTON
TTITLE5=Temptation - DIANA KRALL
TTITLE6=Nothin' But the Blues - ELKIE BROOKS
TTITLE7=Nobody's Fault But Mine - KELLY RICHEY
TTITLE8=You're With Me - DEBORAH COLEMAN
TTITLE9=Some Day - MAVIS STAPLES
TTITLE10=On the 7-th Day - ETTA JAMES
TTITLE11=The Walking Wounded - SISTA MONICA
TTITLE12=Eyes Of a Woman - KELLY RICHEY
TTITLE13=Nature's Disappearing - DEBBIE DAVIES
TTITLE14=Someday When We're Both Alone - MARIA MULDAUR
TTITLE15=Lie No Better - ETTA JAMES
TTITLE16=A Lover Is Forever - RUTH BROWN
EXTD=
EXTT0=
EXTT1=
EXTT2=
EXTT3=
EXTT4=
EXTT5=
EXTT6=
EXTT7=
EXTT8=
EXTT9=
EXTT10=
EXTT11=
EXTT12=
EXTT13=
EXTT14=
EXTT15=
EXTT16=
PLAYORDER=
